<svg width="22" height="22" viewBox="0 0 22 22" fill="none" xmlns="http://www.w3.org/2000/svg">
<path fill-rule="evenodd" clip-rule="evenodd" d="M21.2773 11.2386C21.2773 10.494 21.2105 9.77809 21.0864 9.09082H11.1973V13.1524H16.8482C16.6048 14.4649 15.865 15.577 14.753 16.3215V18.9561H18.1464C20.1318 17.1281 21.2773 14.4363 21.2773 11.2386Z" fill="#4285F4"/>
<path fill-rule="evenodd" clip-rule="evenodd" d="M11.1977 21.5001C14.0327 21.5001 16.4095 20.5599 18.1468 18.9563L14.7533 16.3217C13.8131 16.9517 12.6104 17.324 11.1977 17.324C8.46288 17.324 6.1481 15.4769 5.32241 12.9951H1.81445V15.7156C3.54218 19.1472 7.0931 21.5001 11.1977 21.5001Z" fill="#34A853"/>
<path fill-rule="evenodd" clip-rule="evenodd" d="M5.32205 12.9951C5.11205 12.3651 4.99273 11.6922 4.99273 11.0001C4.99273 10.3081 5.11205 9.63513 5.32205 9.00513V6.28467H1.81409C1.10295 7.70217 0.697266 9.30581 0.697266 11.0001C0.697266 12.6945 1.10295 14.2981 1.81409 15.7156L5.32205 12.9951Z" fill="#FBBC05"/>
<path fill-rule="evenodd" clip-rule="evenodd" d="M11.1977 4.67615C12.7392 4.67615 14.1233 5.20592 15.2115 6.24638L18.2231 3.23478C16.4047 1.54046 14.0279 0.5 11.1977 0.5C7.0931 0.5 3.54218 2.85296 1.81445 6.28456L5.32241 9.00502C6.1481 6.52319 8.46288 4.67615 11.1977 4.67615Z" fill="#EA4335"/>
</svg>
